<?xml version="1.0" encoding="utf-8" standalone="no"?>
<!DOCTYPE svg PUBLIC "-//W3C//DTD SVG 1.1//EN" "http://www.w3.org/Graphics/SVG/1.1/DTD/svg11.dtd">
<svg version="1.1" xmlns="http://www.w3.org/2000/svg" xmlns:xlink="http://www.w3.org/1999/xlink" width="1166pt" height="613pt" viewBox="0 0 1166 613" xml:space="preserve" enable-background="new 0 0 1166 613">
<g transform="scale(0.75,0.75)">
<g id="Kentucky_Count_FeatureToPoin">
<g transform="matrix(1.3333333 0 0 -1.3333333 868.80673 572.72961)" data-id="ADAIR">
<path d="M0 5 C2.7614237 5 5 2.7614237 5 0 C5 -2.7614237 2.7614237 -5 0 -5 C-2.7614237 -5 -5 -2.7614237 -5 0 C-5 2.7614237 -2.7614237 5 0 5 Z "  fill="#E60000" fill-rule="evenodd" stroke="#000000" fill-opacity="0.6" stroke-opacity="1"  stroke-width="0.6" stroke-linecap="round" stroke-linejoin="bevel" stroke-miterlimit="10" />
</g>
<g transform="matrix(1.3333333 0 0 -1.3333333 702.31758 653.51079)" data-id="ALLEN">
<path d="M0 5 C2.7614237 5 5 2.7614237 5 0 C5 -2.7614237 2.7614237 -5 0 -5 C-2.7614237 -5 -5 -2.7614237 -5 0 C-5 2.7614237 -2.7614237 5 0 5 Z "  fill="#E60000" fill-rule="evenodd" stroke="#000000" fill-opacity="0.6" stroke-opacity="1"  stroke-width="0.6" stroke-linecap="round" stroke-linejoin="bevel" stroke-miterlimit="10" />
</g>
<g transform="matrix(1.3333333 0 0 -1.3333333 921.7979 365.07081)" data-id="ANDERSON">
<path d="M0 5 C2.7614237 5 5 2.7614237 5 0 C5 -2.7614237 2.7614237 -5 0 -5 C-2.7614237 -5 -5 -2.7614237 -5 0 C-5 2.7614237 -2.7614237 5 0 5 Z "  fill="#E60000" fill-rule="evenodd" stroke="#000000" fill-opacity="0.6" stroke-opacity="1"  stroke-width="0.6" stroke-linecap="round" stroke-linejoin="bevel" stroke-miterlimit="10" />
</g>
<g transform="matrix(1.3333333 0 0 -1.3333333 188.3039 583.21587)" data-id="BALLARD">
<path d="M0 5 C2.7614237 5 5 2.7614237 5 0 C5 -2.7614237 2.7614237 -5 0 -5 C-2.7614237 -5 -5 -2.7614237 -5 0 C-5 2.7614237 -2.7614237 5 0 5 Z "  fill="#E60000" fill-rule="evenodd" stroke="#000000" fill-opacity="0.6" stroke-opacity="1"  stroke-width="0.6" stroke-linecap="round" stroke-linejoin="bevel" stroke-miterlimit="10" />
</g>
<g transform="matrix(1.3333333 0 0 -1.3333333 749.30304 604.48241)" data-id="BARREN">
<path d="M0 5 C2.7614237 5 5 2.7614237 5 0 C5 -2.7614237 2.7614237 -5 0 -5 C-2.7614237 -5 -5 -2.7614237 -5 0 C-5 2.7614237 -2.7614237 5 0 5 Z "  fill="#E60000" fill-rule="evenodd" stroke="#000000" fill-opacity="0.6" stroke-opacity="1"  stroke-width="0.6" stroke-linecap="round" stroke-linejoin="bevel" stroke-miterlimit="10" />
</g>
<g transform="matrix(1.3333333 0 0 -1.3333333 1150.2112 332.27188)" data-id="BATH">
<path d="M0 5 C2.7614237 5 5 2.7614237 5 0 C5 -2.7614237 2.7614237 -5 0 -5 C-2.7614237 -5 -5 -2.7614237 -5 0 C-5 2.7614237 -2.7614237 5 0 5 Z "  fill="#E60000" fill-rule="evenodd" stroke="#000000" fill-opacity="0.6" stroke-opacity="1"  stroke-width="0.6" stroke-linecap="round" stroke-linejoin="bevel" stroke-miterlimit="10" />
</g>
<g transform="matrix(1.3333333 0 0 -1.3333333 1162.7832 658.22019)" data-id="BELL">
<path d="M0 5 C2.7614237 5 5 2.7614237 5 0 C5 -2.7614237 2.7614237 -5 0 -5 C-2.7614237 -5 -5 -2.7614237 -5 0 C-5 2.7614237 -2.7614237 5 0 5 Z "  fill="#E60000" fill-rule="evenodd" stroke="#000000" fill-opacity="0.6" stroke-opacity="1"  stroke-width="0.6" stroke-linecap="round" stroke-linejoin="bevel" stroke-miterlimit="10" />
</g>
<g transform="matrix(1.3333333 0 0 -1.3333333 969.94495 139.22969)" data-id="BOONE">
<path d="M0 5 C2.7614237 5 5 2.7614237 5 0 C5 -2.7614237 2.7614237 -5 0 -5 C-2.7614237 -5 -5 -2.7614237 -5 0 C-5 2.7614237 -2.7614237 5 0 5 Z "  fill="#E60000" fill-rule="evenodd" stroke="#000000" fill-opacity="0.6" stroke-opacity="1"  stroke-width="0.6" stroke-linecap="round" stroke-linejoin="bevel" stroke-miterlimit="10" />
</g>
<g transform="matrix(1.3333333 0 0 -1.3333333 1063.397 317.89949)" data-id="BOURBON">
<path d="M0 5 C2.7614237 5 5 2.7614237 5 0 C5 -2.7614237 2.7614237 -5 0 -5 C-2.7614237 -5 -5 -2.7614237 -5 0 C-5 2.7614237 -2.7614237 5 0 5 Z "  fill="#E60000" fill-rule="evenodd" stroke="#000000" fill-opacity="0.6" stroke-opacity="1"  stroke-width="0.6" stroke-linecap="round" stroke-linejoin="bevel" stroke-miterlimit="10" />
</g>
<g transform="matrix(1.3333333 0 0 -1.3333333 1343.2602 282.27148)" data-id="BOYD">
<path d="M0 5 C2.7614237 5 5 2.7614237 5 0 C5 -2.7614237 2.7614237 -5 0 -5 C-2.7614237 -5 -5 -2.7614237 -5 0 C-5 2.7614237 -2.7614237 5 0 5 Z "  fill="#E60000" fill-rule="evenodd" stroke="#000000" fill-opacity="0.6" stroke-opacity="1"  stroke-width="0.6" stroke-linecap="round" stroke-linejoin="bevel" stroke-miterlimit="10" />
</g>
<g transform="matrix(1.3333333 0 0 -1.3333333 944.52159 452.99146)" data-id="BOYLE">
<path d="M0 5 C2.7614237 5 5 2.7614237 5 0 C5 -2.7614237 2.7614237 -5 0 -5 C-2.7614237 -5 -5 -2.7614237 -5 0 C-5 2.7614237 -2.7614237 5 0 5 Z "  fill="#E60000" fill-rule="evenodd" stroke="#000000" fill-opacity="0.6" stroke-opacity="1"  stroke-width="0.6" stroke-linecap="round" stroke-linejoin="bevel" stroke-miterlimit="10" />
</g>
<g transform="matrix(1.3333333 0 0 -1.3333333 1086.6316 205.26497)" data-id="BRACKEN">
<path d="M0 5 C2.7614237 5 5 2.7614237 5 0 C5 -2.7614237 2.7614237 -5 0 -5 C-2.7614237 -5 -5 -2.7614237 -5 0 C-5 2.7614237 -2.7614237 5 0 5 Z "  fill="#E60000" fill-rule="evenodd" stroke="#000000" fill-opacity="0.6" stroke-opacity="1"  stroke-width="0.6" stroke-linecap="round" stroke-linejoin="bevel" stroke-miterlimit="10" />
</g>
<g transform="matrix(1.3333333 0 0 -1.3333333 1226.821 476.69066)" data-id="BREATHITT">
<path d="M0 5 C2.7614237 5 5 2.7614237 5 0 C5 -2.7614237 2.7614237 -5 0 -5 C-2.7614237 -5 -5 -2.7614237 -5 0 C-5 2.7614237 -2.7614237 5 0 5 Z "  fill="#E60000" fill-rule="evenodd" stroke="#000000" fill-opacity="0.6" stroke-opacity="1"  stroke-width="0.6" stroke-linecap="round" stroke-linejoin="bevel" stroke-miterlimit="10" />
</g>
<g transform="matrix(1.3333333 0 0 -1.3333333 658.61327 418.50873)" data-id="BRECKINRIDGE">
<path d="M0 5 C2.7614237 5 5 2.7614237 5 0 C5 -2.7614237 2.7614237 -5 0 -5 C-2.7614237 -5 -5 -2.7614237 -5 0 C-5 2.7614237 -2.7614237 5 0 5 Z "  fill="#E60000" fill-rule="evenodd" stroke="#000000" fill-opacity="0.6" stroke-opacity="1"  stroke-width="0.6" stroke-linecap="round" stroke-linejoin="bevel" stroke-miterlimit="10" />
</g>
<g transform="matrix(1.3333333 0 0 -1.3333333 792.8198 372.91954)" data-id="BULLITT">
<path d="M0 5 C2.7614237 5 5 2.7614237 5 0 C5 -2.7614237 2.7614237 -5 0 -5 C-2.7614237 -5 -5 -2.7614237 -5 0 C-5 2.7614237 -2.7614237 5 0 5 Z "  fill="#E60000" fill-rule="evenodd" stroke="#000000" fill-opacity="0.6" stroke-opacity="1"  stroke-width="0.6" stroke-linecap="round" stroke-linejoin="bevel" stroke-miterlimit="10" />
</g>
<g transform="matrix(1.3333333 0 0 -1.3333333 612.42343 549.055)" data-id="BUTLER">
<path d="M0 5 C2.7614237 5 5 2.7614237 5 0 C5 -2.7614237 2.7614237 -5 0 -5 C-2.7614237 -5 -5 -2.7614237 -5 0 C-5 2.7614237 -2.7614237 5 0 5 Z "  fill="#E60000" fill-rule="evenodd" stroke="#000000" fill-opacity="0.6" stroke-opacity="1"  stroke-width="0.6" stroke-linecap="round" stroke-linejoin="bevel" stroke-miterlimit="10" />
</g>
<g transform="matrix(1.3333333 0 0 -1.3333333 395.35776 563.27922)" data-id="CALDWELL">
<path d="M0 5 C2.7614237 5 5 2.7614237 5 0 C5 -2.7614237 2.7614237 -5 0 -5 C-2.7614237 -5 -5 -2.7614237 -5 0 C-5 2.7614237 -2.7614237 5 0 5 Z "  fill="#E60000" fill-rule="evenodd" stroke="#000000" fill-opacity="0.6" stroke-opacity="1"  stroke-width="0.6" stroke-linecap="round" stroke-linejoin="bevel" stroke-miterlimit="10" />
</g>
<g transform="matrix(1.3333333 0 0 -1.3333333 321.3822 683.22516)" data-id="CALLOWAY">
<path d="M0 5 C2.7614237 5 5 2.7614237 5 0 C5 -2.7614237 2.7614237 -5 0 -5 C-2.7614237 -5 -5 -2.7614237 -5 0 C-5 2.7614237 -2.7614237 5 0 5 Z "  fill="#E60000" fill-rule="evenodd" stroke="#000000" fill-opacity="0.6" stroke-opacity="1"  stroke-width="0.6" stroke-linecap="round" stroke-linejoin="bevel" stroke-miterlimit="10" />
</g>
<g transform="matrix(1.3333333 0 0 -1.3333333 1035.6029 148.30633)" data-id="CAMPBELL">
<path d="M0 5 C2.7614237 5 5 2.7614237 5 0 C5 -2.7614237 2.7614237 -5 0 -5 C-2.7614237 -5 -5 -2.7614237 -5 0 C-5 2.7614237 -2.7614237 5 0 5 Z "  fill="#E60000" fill-rule="evenodd" stroke="#000000" fill-opacity="0.6" stroke-opacity="1"  stroke-width="0.6" stroke-linecap="round" stroke-linejoin="bevel" stroke-miterlimit="10" />
</g>
<g transform="matrix(1.3333333 0 0 -1.3333333 193.50479 630.2381)" data-id="CARLISLE">
<path d="M0 5 C2.7614237 5 5 2.7614237 5 0 C5 -2.7614237 2.7614237 -5 0 -5 C-2.7614237 -5 -5 -2.7614237 -5 0 C-5 2.7614237 -2.7614237 5 0 5 Z "  fill="#E60000" fill-rule="evenodd" stroke="#000000" fill-opacity="0.6" stroke-opacity="1"  stroke-width="0.6" stroke-linecap="round" stroke-linejoin="bevel" stroke-miterlimit="10" />
</g>
<g transform="matrix(1.3333333 0 0 -1.3333333 895.6892 215.32851)" data-id="CARROLL">
<path d="M0 5 C2.7614237 5 5 2.7614237 5 0 C5 -2.7614237 2.7614237 -5 0 -5 C-2.7614237 -5 -5 -2.7614237 -5 0 C-5 2.7614237 -2.7614237 5 0 5 Z "  fill="#E60000" fill-rule="evenodd" stroke="#000000" fill-opacity="0.6" stroke-opacity="1"  stroke-width="0.6" stroke-linecap="round" stroke-linejoin="bevel" stroke-miterlimit="10" />
</g>
<g transform="matrix(1.3333333 0 0 -1.3333333 1277.0495 291.9244)" data-id="CARTER">
<path d="M0 5 C2.7614237 5 5 2.7614237 5 0 C5 -2.7614237 2.7614237 -5 0 -5 C-2.7614237 -5 -5 -2.7614237 -5 0 C-5 2.7614237 -2.7614237 5 0 5 Z "  fill="#E60000" fill-rule="evenodd" stroke="#000000" fill-opacity="0.6" stroke-opacity="1"  stroke-width="0.6" stroke-linecap="round" stroke-linejoin="bevel" stroke-miterlimit="10" />
</g>
<g transform="matrix(1.3333333 0 0 -1.3333333 933.25215 522.60018)" data-id="CASEY">
<path d="M0 5 C2.7614237 5 5 2.7614237 5 0 C5 -2.7614237 2.7614237 -5 0 -5 C-2.7614237 -5 -5 -2.7614237 -5 0 C-5 2.7614237 -2.7614237 5 0 5 Z "  fill="#E60000" fill-rule="evenodd" stroke="#000000" fill-opacity="0.6" stroke-opacity="1"  stroke-width="0.6" stroke-linecap="round" stroke-linejoin="bevel" stroke-miterlimit="10" />
</g>
<g transform="matrix(1.3333333 0 0 -1.3333333 464.44756 620.7871)" data-id="CHRISTIAN">
<path d="M0 5 C2.7614237 5 5 2.7614237 5 0 C5 -2.7614237 2.7614237 -5 0 -5 C-2.7614237 -5 -5 -2.7614237 -5 0 C-5 2.7614237 -2.7614237 5 0 5 Z "  fill="#E60000" fill-rule="evenodd" stroke="#000000" fill-opacity="0.6" stroke-opacity="1"  stroke-width="0.6" stroke-linecap="round" stroke-linejoin="bevel" stroke-miterlimit="10" />
</g>
<g transform="matrix(1.3333333 0 0 -1.3333333 1076.1586 372.74232)" data-id="CLARK">
<path d="M0 5 C2.7614237 5 5 2.7614237 5 0 C5 -2.7614237 2.7614237 -5 0 -5 C-2.7614237 -5 -5 -2.7614237 -5 0 C-5 2.7614237 -2.7614237 5 0 5 Z "  fill="#E60000" fill-rule="evenodd" stroke="#000000" fill-opacity="0.6" stroke-opacity="1"  stroke-width="0.6" stroke-linecap="round" stroke-linejoin="bevel" stroke-miterlimit="10" />
</g>
<g transform="matrix(1.3333333 0 0 -1.3333333 1155.3391 559.97614)" data-id="CLAY">
<path d="M0 5 C2.7614237 5 5 2.7614237 5 0 C5 -2.7614237 2.7614237 -5 0 -5 C-2.7614237 -5 -5 -2.7614237 -5 0 C-5 2.7614237 -2.7614237 5 0 5 Z "  fill="#E60000" fill-rule="evenodd" stroke="#000000" fill-opacity="0.6" stroke-opacity="1"  stroke-width="0.6" stroke-linecap="round" stroke-linejoin="bevel" stroke-miterlimit="10" />
</g>
<g transform="matrix(1.3333333 0 0 -1.3333333 895.25953 658.95792)" data-id="CLINTON">
<path d="M0 5 C2.7614237 5 5 2.7614237 5 0 C5 -2.7614237 2.7614237 -5 0 -5 C-2.7614237 -5 -5 -2.7614237 -5 0 C-5 2.7614237 -2.7614237 5 0 5 Z "  fill="#E60000" fill-rule="evenodd" stroke="#000000" fill-opacity="0.6" stroke-opacity="1"  stroke-width="0.6" stroke-linecap="round" stroke-linejoin="bevel" stroke-miterlimit="10" />
</g>
<g transform="matrix(1.3333333 0 0 -1.3333333 353.39821 515.60351)" data-id="CRITTENDEN">
<path d="M0 5 C2.7614237 5 5 2.7614237 5 0 C5 -2.7614237 2.7614237 -5 0 -5 C-2.7614237 -5 -5 -2.7614237 -5 0 C-5 2.7614237 -2.7614237 5 0 5 Z "  fill="#E60000" fill-rule="evenodd" stroke="#000000" fill-opacity="0.6" stroke-opacity="1"  stroke-width="0.6" stroke-linecap="round" stroke-linejoin="bevel" stroke-miterlimit="10" />
</g>
<g transform="matrix(1.3333333 0 0 -1.3333333 849.06736 645.46205)" data-id="CUMBERLAND">
<path d="M0 5 C2.7614237 5 5 2.7614237 5 0 C5 -2.7614237 2.7614237 -5 0 -5 C-2.7614237 -5 -5 -2.7614237 -5 0 C-5 2.7614237 -2.7614237 5 0 5 Z "  fill="#E60000" fill-rule="evenodd" stroke="#000000" fill-opacity="0.6" stroke-opacity="1"  stroke-width="0.6" stroke-linecap="round" stroke-linejoin="bevel" stroke-miterlimit="10" />
</g>
<g transform="matrix(1.3333333 0 0 -1.3333333 533.53287 440.8128)" data-id="DAVIESS">
<path d="M0 5 C2.7614237 5 5 2.7614237 5 0 C5 -2.7614237 2.7614237 -5 0 -5 C-2.7614237 -5 -5 -2.7614237 -5 0 C-5 2.7614237 -2.7614237 5 0 5 Z "  fill="#E60000" fill-rule="evenodd" stroke="#000000" fill-opacity="0.6" stroke-opacity="1"  stroke-width="0.6" stroke-linecap="round" stroke-linejoin="bevel" stroke-miterlimit="10" />
</g>
<g transform="matrix(1.3333333 0 0 -1.3333333 693.49338 548.7103)" data-id="EDMONSON">
<path d="M0 5 C2.7614237 5 5 2.7614237 5 0 C5 -2.7614237 2.7614237 -5 0 -5 C-2.7614237 -5 -5 -2.7614237 -5 0 C-5 2.7614237 -2.7614237 5 0 5 Z "  fill="#E60000" fill-rule="evenodd" stroke="#000000" fill-opacity="0.6" stroke-opacity="1"  stroke-width="0.6" stroke-linecap="round" stroke-linejoin="bevel" stroke-miterlimit="10" />
</g>
<g transform="matrix(1.3333333 0 0 -1.3333333 1268.255 338.5793)" data-id="ELLIOTT">
<path d="M0 5 C2.7614237 5 5 2.7614237 5 0 C5 -2.7614237 2.7614237 -5 0 -5 C-2.7614237 -5 -5 -2.7614237 -5 0 C-5 2.7614237 -2.7614237 5 0 5 Z "  fill="#E60000" fill-rule="evenodd" stroke="#000000" fill-opacity="0.6" stroke-opacity="1"  stroke-width="0.6" stroke-linecap="round" stroke-linejoin="bevel" stroke-miterlimit="10" />
</g>
<g transform="matrix(1.3333333 0 0 -1.3333333 1109.6598 437.23205)" data-id="ESTILL">
<path d="M0 5 C2.7614237 5 5 2.7614237 5 0 C5 -2.7614237 2.7614237 -5 0 -5 C-2.7614237 -5 -5 -2.7614237 -5 0 C-5 2.7614237 -2.7614237 5 0 5 Z "  fill="#E60000" fill-rule="evenodd" stroke="#000000" fill-opacity="0.6" stroke-opacity="1"  stroke-width="0.6" stroke-linecap="round" stroke-linejoin="bevel" stroke-miterlimit="10" />
</g>
<g transform="matrix(1.3333333 0 0 -1.3333333 1019.1891 356.13525)" data-id="FAYETTE">
<path d="M0 5 C2.7614237 5 5 2.7614237 5 0 C5 -2.7614237 2.7614237 -5 0 -5 C-2.7614237 -5 -5 -2.7614237 -5 0 C-5 2.7614237 -2.7614237 5 0 5 Z "  fill="#E60000" fill-rule="evenodd" stroke="#000000" fill-opacity="0.6" stroke-opacity="1"  stroke-width="0.6" stroke-linecap="round" stroke-linejoin="bevel" stroke-miterlimit="10" />
</g>
<g transform="matrix(1.3333333 0 0 -1.3333333 1158.6351 279.80595)" data-id="FLEMING">
<path d="M0 5 C2.7614237 5 5 2.7614237 5 0 C5 -2.7614237 2.7614237 -5 0 -5 C-2.7614237 -5 -5 -2.7614237 -5 0 C-5 2.7614237 -2.7614237 5 0 5 Z "  fill="#E60000" fill-rule="evenodd" stroke="#000000" fill-opacity="0.6" stroke-opacity="1"  stroke-width="0.6" stroke-linecap="round" stroke-linejoin="bevel" stroke-miterlimit="10" />
</g>
<g transform="matrix(1.3333333 0 0 -1.3333333 1332.6454 468.47344)" data-id="FLOYD">
<path d="M0 5 C2.7614237 5 5 2.7614237 5 0 C5 -2.7614237 2.7614237 -5 0 -5 C-2.7614237 -5 -5 -2.7614237 -5 0 C-5 2.7614237 -2.7614237 5 0 5 Z "  fill="#E60000" fill-rule="evenodd" stroke="#000000" fill-opacity="0.6" stroke-opacity="1"  stroke-width="0.6" stroke-linecap="round" stroke-linejoin="bevel" stroke-miterlimit="10" />
</g>
<g transform="matrix(1.3333333 0 0 -1.3333333 942.64564 310.34959)" data-id="FRANKLIN">
<path d="M0 5 C2.7614237 5 5 2.7614237 5 0 C5 -2.7614237 2.7614237 -5 0 -5 C-2.7614237 -5 -5 -2.7614237 -5 0 C-5 2.7614237 -2.7614237 5 0 5 Z "  fill="#E60000" fill-rule="evenodd" stroke="#000000" fill-opacity="0.6" stroke-opacity="1"  stroke-width="0.6" stroke-linecap="round" stroke-linejoin="bevel" stroke-miterlimit="10" />
</g>
<g transform="matrix(1.3333333 0 0 -1.3333333 161.83984 698.07046)" data-id="FULTON">
<path d="M0 5 C2.7614237 5 5 2.7614237 5 0 C5 -2.7614237 2.7614237 -5 0 -5 C-2.7614237 -5 -5 -2.7614237 -5 0 C-5 2.7614237 -2.7614237 5 0 5 Z "  fill="#E60000" fill-rule="evenodd" stroke="#000000" fill-opacity="0.6" stroke-opacity="1"  stroke-width="0.6" stroke-linecap="round" stroke-linejoin="bevel" stroke-miterlimit="10" />
</g>
<g transform="matrix(1.3333333 0 0 -1.3333333 945.91658 189.31532)" data-id="GALLATIN">
<path d="M0 5 C2.7614237 5 5 2.7614237 5 0 C5 -2.7614237 2.7614237 -5 0 -5 C-2.7614237 -5 -5 -2.7614237 -5 0 C-5 2.7614237 -2.7614237 5 0 5 Z "  fill="#E60000" fill-rule="evenodd" stroke="#000000" fill-opacity="0.6" stroke-opacity="1"  stroke-width="0.6" stroke-linecap="round" stroke-linejoin="bevel" stroke-miterlimit="10" />
</g>
<g transform="matrix(1.3333333 0 0 -1.3333333 1004.7407 449.4535)" data-id="GARRARD">
<path d="M0 5 C2.7614237 5 5 2.7614237 5 0 C5 -2.7614237 2.7614237 -5 0 -5 C-2.7614237 -5 -5 -2.7614237 -5 0 C-5 2.7614237 -2.7614237 5 0 5 Z "  fill="#E60000" fill-rule="evenodd" stroke="#000000" fill-opacity="0.6" stroke-opacity="1"  stroke-width="0.6" stroke-linecap="round" stroke-linejoin="bevel" stroke-miterlimit="10" />
</g>
<g transform="matrix(1.3333333 0 0 -1.3333333 988.83385 214.62745)" data-id="GRANT">
<path d="M0 5 C2.7614237 5 5 2.7614237 5 0 C5 -2.7614237 2.7614237 -5 0 -5 C-2.7614237 -5 -5 -2.7614237 -5 0 C-5 2.7614237 -2.7614237 5 0 5 Z "  fill="#E60000" fill-rule="evenodd" stroke="#000000" fill-opacity="0.6" stroke-opacity="1"  stroke-width="0.6" stroke-linecap="round" stroke-linejoin="bevel" stroke-miterlimit="10" />
</g>
<g transform="matrix(1.3333333 0 0 -1.3333333 252.03208 659.89649)" data-id="GRAVES">
<path d="M0 5 C2.7614237 5 5 2.7614237 5 0 C5 -2.7614237 2.7614237 -5 0 -5 C-2.7614237 -5 -5 -2.7614237 -5 0 C-5 2.7614237 -2.7614237 5 0 5 Z "  fill="#E60000" fill-rule="evenodd" stroke="#000000" fill-opacity="0.6" stroke-opacity="1"  stroke-width="0.6" stroke-linecap="round" stroke-linejoin="bevel" stroke-miterlimit="10" />
</g>
<g transform="matrix(1.3333333 0 0 -1.3333333 674.23359 490.71951)" data-id="GRAYSON">
<path d="M0 5 C2.7614237 5 5 2.7614237 5 0 C5 -2.7614237 2.7614237 -5 0 -5 C-2.7614237 -5 -5 -2.7614237 -5 0 C-5 2.7614237 -2.7614237 5 0 5 Z "  fill="#E60000" fill-rule="evenodd" stroke="#000000" fill-opacity="0.6" stroke-opacity="1"  stroke-width="0.6" stroke-linecap="round" stroke-linejoin="bevel" stroke-miterlimit="10" />
</g>
<g transform="matrix(1.3333333 0 0 -1.3333333 818.93373 535.99651)" data-id="GREEN">
<path d="M0 5 C2.7614237 5 5 2.7614237 5 0 C5 -2.7614237 2.7614237 -5 0 -5 C-2.7614237 -5 -5 -2.7614237 -5 0 C-5 2.7614237 -2.7614237 5 0 5 Z "  fill="#E60000" fill-rule="evenodd" stroke="#000000" fill-opacity="0.6" stroke-opacity="1"  stroke-width="0.6" stroke-linecap="round" stroke-linejoin="bevel" stroke-miterlimit="10" />
</g>
<g transform="matrix(1.3333333 0 0 -1.3333333 1300.3356 238.77465)" data-id="GREENUP">
<path d="M0 5 C2.7614237 5 5 2.7614237 5 0 C5 -2.7614237 2.7614237 -5 0 -5 C-2.7614237 -5 -5 -2.7614237 -5 0 C-5 2.7614237 -2.7614237 5 0 5 Z "  fill="#E60000" fill-rule="evenodd" stroke="#000000" fill-opacity="0.6" stroke-opacity="1"  stroke-width="0.6" stroke-linecap="round" stroke-linejoin="bevel" stroke-miterlimit="10" />
</g>
<g transform="matrix(1.3333333 0 0 -1.3333333 594.80521 402.72579)" data-id="HANCOCK">
<path d="M0 5 C2.7614237 5 5 2.7614237 5 0 C5 -2.7614237 2.7614237 -5 0 -5 C-2.7614237 -5 -5 -2.7614237 -5 0 C-5 2.7614237 -2.7614237 5 0 5 Z "  fill="#E60000" fill-rule="evenodd" stroke="#000000" fill-opacity="0.6" stroke-opacity="1"  stroke-width="0.6" stroke-linecap="round" stroke-linejoin="bevel" stroke-miterlimit="10" />
</g>
<g transform="matrix(1.3333333 0 0 -1.3333333 743.87461 435.92725)" data-id="HARDIN">
<path d="M0 5 C2.7614237 5 5 2.7614237 5 0 C5 -2.7614237 2.7614237 -5 0 -5 C-2.7614237 -5 -5 -2.7614237 -5 0 C-5 2.7614237 -2.7614237 5 0 5 Z "  fill="#E60000" fill-rule="evenodd" stroke="#000000" fill-opacity="0.6" stroke-opacity="1"  stroke-width="0.6" stroke-linecap="round" stroke-linejoin="bevel" stroke-miterlimit="10" />
</g>
<g transform="matrix(1.3333333 0 0 -1.3333333 1246.2559 629.35913)" data-id="HARLAN">
<path d="M0 5 C2.7614237 5 5 2.7614237 5 0 C5 -2.7614237 2.7614237 -5 0 -5 C-2.7614237 -5 -5 -2.7614237 -5 0 C-5 2.7614237 -2.7614237 5 0 5 Z "  fill="#E60000" fill-rule="evenodd" stroke="#000000" fill-opacity="0.6" stroke-opacity="1"  stroke-width="0.6" stroke-linecap="round" stroke-linejoin="bevel" stroke-miterlimit="10" />
</g>
<g transform="matrix(1.3333333 0 0 -1.3333333 1042.4965 263.06597)" data-id="HARRISON">
<path d="M0 5 C2.7614237 5 5 2.7614237 5 0 C5 -2.7614237 2.7614237 -5 0 -5 C-2.7614237 -5 -5 -2.7614237 -5 0 C-5 2.7614237 -2.7614237 5 0 5 Z "  fill="#E60000" fill-rule="evenodd" stroke="#000000" fill-opacity="0.6" stroke-opacity="1"  stroke-width="0.6" stroke-linecap="round" stroke-linejoin="bevel" stroke-miterlimit="10" />
</g>
<g transform="matrix(1.3333333 0 0 -1.3333333 758.26019 527.76438)" data-id="HART">
<path d="M0 5 C2.7614237 5 5 2.7614237 5 0 C5 -2.7614237 2.7614237 -5 0 -5 C-2.7614237 -5 -5 -2.7614237 -5 0 C-5 2.7614237 -2.7614237 5 0 5 Z "  fill="#E60000" fill-rule="evenodd" stroke="#000000" fill-opacity="0.6" stroke-opacity="1"  stroke-width="0.6" stroke-linecap="round" stroke-linejoin="bevel" stroke-miterlimit="10" />
</g>
<g transform="matrix(1.3333333 0 0 -1.3333333 444.54936 425.07847)" data-id="HENDERSON">
<path d="M0 5 C2.7614237 5 5 2.7614237 5 0 C5 -2.7614237 2.7614237 -5 0 -5 C-2.7614237 -5 -5 -2.7614237 -5 0 C-5 2.7614237 -2.7614237 5 0 5 Z "  fill="#E60000" fill-rule="evenodd" stroke="#000000" fill-opacity="0.6" stroke-opacity="1"  stroke-width="0.6" stroke-linecap="round" stroke-linejoin="bevel" stroke-miterlimit="10" />
</g>
<g transform="matrix(1.3333333 0 0 -1.3333333 898.38363 261.51521)" data-id="HENRY">
<path d="M0 5 C2.7614237 5 5 2.7614237 5 0 C5 -2.7614237 2.7614237 -5 0 -5 C-2.7614237 -5 -5 -2.7614237 -5 0 C-5 2.7614237 -2.7614237 5 0 5 Z "  fill="#E60000" fill-rule="evenodd" stroke="#000000" fill-opacity="0.6" stroke-opacity="1"  stroke-width="0.6" stroke-linecap="round" stroke-linejoin="bevel" stroke-miterlimit="10" />
</g>
<g transform="matrix(1.3333333 0 0 -1.3333333 192.55446 670.21525)" data-id="HICKMAN">
<path d="M0 5 C2.7614237 5 5 2.7614237 5 0 C5 -2.7614237 2.7614237 -5 0 -5 C-2.7614237 -5 -5 -2.7614237 -5 0 C-5 2.7614237 -2.7614237 5 0 5 Z "  fill="#E60000" fill-rule="evenodd" stroke="#000000" fill-opacity="0.6" stroke-opacity="1"  stroke-width="0.6" stroke-linecap="round" stroke-linejoin="bevel" stroke-miterlimit="10" />
</g>
<g transform="matrix(1.3333333 0 0 -1.3333333 449.22018 529.13761)" data-id="HOPKINS">
<path d="M0 5 C2.7614237 5 5 2.7614237 5 0 C5 -2.7614237 2.7614237 -5 0 -5 C-2.7614237 -5 -5 -2.7614237 -5 0 C-5 2.7614237 -2.7614237 5 0 5 Z "  fill="#E60000" fill-rule="evenodd" stroke="#000000" fill-opacity="0.6" stroke-opacity="1"  stroke-width="0.6" stroke-linecap="round" stroke-linejoin="bevel" stroke-miterlimit="10" />
</g>
<g transform="matrix(1.3333333 0 0 -1.3333333 1102.0728 500.16932)" data-id="JACKSON">
<path d="M0 5 C2.7614237 5 5 2.7614237 5 0 C5 -2.7614237 2.7614237 -5 0 -5 C-2.7614237 -5 -5 -2.7614237 -5 0 C-5 2.7614237 -2.7614237 5 0 5 Z "  fill="#E60000" fill-rule="evenodd" stroke="#000000" fill-opacity="0.6" stroke-opacity="1"  stroke-width="0.6" stroke-linecap="round" stroke-linejoin="bevel" stroke-miterlimit="10" />
</g>
<g transform="matrix(1.3333333 0 0 -1.3333333 799.54905 322.4456)" data-id="JEFFERSON">
<path d="M0 5 C2.7614237 5 5 2.7614237 5 0 C5 -2.7614237 2.7614237 -5 0 -5 C-2.7614237 -5 -5 -2.7614237 -5 0 C-5 2.7614237 -2.7614237 5 0 5 Z "  fill="#E60000" fill-rule="evenodd" stroke="#000000" fill-opacity="0.6" stroke-opacity="1"  stroke-width="0.6" stroke-linecap="round" stroke-linejoin="bevel" stroke-miterlimit="10" />
</g>
<g transform="matrix(1.3333333 0 0 -1.3333333 996.82855 395.67019)" data-id="JESSAMINE">
<path d="M0 5 C2.7614237 5 5 2.7614237 5 0 C5 -2.7614237 2.7614237 -5 0 -5 C-2.7614237 -5 -5 -2.7614237 -5 0 C-5 2.7614237 -2.7614237 5 0 5 Z "  fill="#E60000" fill-rule="evenodd" stroke="#000000" fill-opacity="0.6" stroke-opacity="1"  stroke-width="0.6" stroke-linecap="round" stroke-linejoin="bevel" stroke-miterlimit="10" />
</g>
<g transform="matrix(1.3333333 0 0 -1.3333333 1316.9403 401.54766)" data-id="JOHNSON">
<path d="M0 5 C2.7614237 5 5 2.7614237 5 0 C5 -2.7614237 2.7614237 -5 0 -5 C-2.7614237 -5 -5 -2.7614237 -5 0 C-5 2.7614237 -2.7614237 5 0 5 Z "  fill="#E60000" fill-rule="evenodd" stroke="#000000" fill-opacity="0.6" stroke-opacity="1"  stroke-width="0.6" stroke-linecap="round" stroke-linejoin="bevel" stroke-miterlimit="10" />
</g>
<g transform="matrix(1.3333333 0 0 -1.3333333 1005.5419 147.79849)" data-id="KENTON">
<path d="M0 5 C2.7614237 5 5 2.7614237 5 0 C5 -2.7614237 2.7614237 -5 0 -5 C-2.7614237 -5 -5 -2.7614237 -5 0 C-5 2.7614237 -2.7614237 5 0 5 Z "  fill="#E60000" fill-rule="evenodd" stroke="#000000" fill-opacity="0.6" stroke-opacity="1"  stroke-width="0.6" stroke-linecap="round" stroke-linejoin="bevel" stroke-miterlimit="10" />
</g>
<g transform="matrix(1.3333333 0 0 -1.3333333 1294.5094 515.30868)" data-id="KNOTT">
<path d="M0 5 C2.7614237 5 5 2.7614237 5 0 C5 -2.7614237 2.7614237 -5 0 -5 C-2.7614237 -5 -5 -2.7614237 -5 0 C-5 2.7614237 -2.7614237 5 0 5 Z "  fill="#E60000" fill-rule="evenodd" stroke="#000000" fill-opacity="0.6" stroke-opacity="1"  stroke-width="0.6" stroke-linecap="round" stroke-linejoin="bevel" stroke-miterlimit="10" />
</g>
<g transform="matrix(1.3333333 0 0 -1.3333333 1129.8439 621.6547)" data-id="KNOX">
<path d="M0 5 C2.7614237 5 5 2.7614237 5 0 C5 -2.7614237 2.7614237 -5 0 -5 C-2.7614237 -5 -5 -2.7614237 -5 0 C-5 2.7614237 -2.7614237 5 0 5 Z "  fill="#E60000" fill-rule="evenodd" stroke="#000000" fill-opacity="0.6" stroke-opacity="1"  stroke-width="0.6" stroke-linecap="round" stroke-linejoin="bevel" stroke-miterlimit="10" />
</g>
<g transform="matrix(1.3333333 0 0 -1.3333333 792.44291 471.1164)" data-id="LARUE">
<path d="M0 5 C2.7614237 5 5 2.7614237 5 0 C5 -2.7614237 2.7614237 -5 0 -5 C-2.7614237 -5 -5 -2.7614237 -5 0 C-5 2.7614237 -2.7614237 5 0 5 Z "  fill="#E60000" fill-rule="evenodd" stroke="#000000" fill-opacity="0.6" stroke-opacity="1"  stroke-width="0.6" stroke-linecap="round" stroke-linejoin="bevel" stroke-miterlimit="10" />
</g>
<g transform="matrix(1.3333333 0 0 -1.3333333 1081.5809 571.23443)" data-id="LAUREL">
<path d="M0 5 C2.7614237 5 5 2.7614237 5 0 C5 -2.7614237 2.7614237 -5 0 -5 C-2.7614237 -5 -5 -2.7614237 -5 0 C-5 2.7614237 -2.7614237 5 0 5 Z "  fill="#E60000" fill-rule="evenodd" stroke="#000000" fill-opacity="0.6" stroke-opacity="1"  stroke-width="0.6" stroke-linecap="round" stroke-linejoin="bevel" stroke-miterlimit="10" />
</g>
<g transform="matrix(1.3333333 0 0 -1.3333333 1334.6517 350.18587)" data-id="LAWRENCE">
<path d="M0 5 C2.7614237 5 5 2.7614237 5 0 C5 -2.7614237 2.7614237 -5 0 -5 C-2.7614237 -5 -5 -2.7614237 -5 0 C-5 2.7614237 -2.7614237 5 0 5 Z "  fill="#E60000" fill-rule="evenodd" stroke="#000000" fill-opacity="0.6" stroke-opacity="1"  stroke-width="0.6" stroke-linecap="round" stroke-linejoin="bevel" stroke-miterlimit="10" />
</g>
<g transform="matrix(1.3333333 0 0 -1.3333333 1155.0529 459.81529)" data-id="LEE">
<path d="M0 5 C2.7614237 5 5 2.7614237 5 0 C5 -2.7614237 2.7614237 -5 0 -5 C-2.7614237 -5 -5 -2.7614237 -5 0 C-5 2.7614237 -2.7614237 5 0 5 Z "  fill="#E60000" fill-rule="evenodd" stroke="#000000" fill-opacity="0.6" stroke-opacity="1"  stroke-width="0.6" stroke-linecap="round" stroke-linejoin="bevel" stroke-miterlimit="10" />
</g>
<g transform="matrix(1.3333333 0 0 -1.3333333 1216.3749 575.03895)" data-id="LESLIE">
<path d="M0 5 C2.7614237 5 5 2.7614237 5 0 C5 -2.7614237 2.7614237 -5 0 -5 C-2.7614237 -5 -5 -2.7614237 -5 0 C-5 2.7614237 -2.7614237 5 0 5 Z "  fill="#E60000" fill-rule="evenodd" stroke="#000000" fill-opacity="0.6" stroke-opacity="1"  stroke-width="0.6" stroke-linecap="round" stroke-linejoin="bevel" stroke-miterlimit="10" />
</g>
<g transform="matrix(1.3333333 0 0 -1.3333333 1312.6119 568.83279)" data-id="LETCHER">
<path d="M0 5 C2.7614237 5 5 2.7614237 5 0 C5 -2.7614237 2.7614237 -5 0 -5 C-2.7614237 -5 -5 -2.7614237 -5 0 C-5 2.7614237 -2.7614237 5 0 5 Z "  fill="#E60000" fill-rule="evenodd" stroke="#000000" fill-opacity="0.6" stroke-opacity="1"  stroke-width="0.6" stroke-linecap="round" stroke-linejoin="bevel" stroke-miterlimit="10" />
</g>
<g transform="matrix(1.3333333 0 0 -1.3333333 1216.9227 242.08437)" data-id="LEWIS">
<path d="M0 5 C2.7614237 5 5 2.7614237 5 0 C5 -2.7614237 2.7614237 -5 0 -5 C-2.7614237 -5 -5 -2.7614237 -5 0 C-5 2.7614237 -2.7614237 5 0 5 Z "  fill="#E60000" fill-rule="evenodd" stroke="#000000" fill-opacity="0.6" stroke-opacity="1"  stroke-width="0.6" stroke-linecap="round" stroke-linejoin="bevel" stroke-miterlimit="10" />
</g>
<g transform="matrix(1.3333333 0 0 -1.3333333 982.20561 491.97094)" data-id="LINCOLN">
<path d="M0 5 C2.7614237 5 5 2.7614237 5 0 C5 -2.7614237 2.7614237 -5 0 -5 C-2.7614237 -5 -5 -2.7614237 -5 0 C-5 2.7614237 -2.7614237 5 0 5 Z "  fill="#E60000" fill-rule="evenodd" stroke="#000000" fill-opacity="0.6" stroke-opacity="1"  stroke-width="0.6" stroke-linecap="round" stroke-linejoin="bevel" stroke-miterlimit="10" />
</g>
<g transform="matrix(1.3333333 0 0 -1.3333333 306.45602 548.49037)" data-id="LIVINGSTON">
<path d="M0 5 C2.7614237 5 5 2.7614237 5 0 C5 -2.7614237 2.7614237 -5 0 -5 C-2.7614237 -5 -5 -2.7614237 -5 0 C-5 2.7614237 -2.7614237 5 0 5 Z "  fill="#E60000" fill-rule="evenodd" stroke="#000000" fill-opacity="0.6" stroke-opacity="1"  stroke-width="0.6" stroke-linecap="round" stroke-linejoin="bevel" stroke-miterlimit="10" />
</g>
<g transform="matrix(1.3333333 0 0 -1.3333333 576.33321 628.70658)" data-id="LOGAN">
<path d="M0 5 C2.7614237 5 5 2.7614237 5 0 C5 -2.7614237 2.7614237 -5 0 -5 C-2.7614237 -5 -5 -2.7614237 -5 0 C-5 2.7614237 -2.7614237 5 0 5 Z "  fill="#E60000" fill-rule="evenodd" stroke="#000000" fill-opacity="0.6" stroke-opacity="1"  stroke-width="0.6" stroke-linecap="round" stroke-linejoin="bevel" stroke-miterlimit="10" />
</g>
<g transform="matrix(1.3333333 0 0 -1.3333333 355.95181 592.24132)" data-id="LYON">
<path d="M0 5 C2.7614237 5 5 2.7614237 5 0 C5 -2.7614237 2.7614237 -5 0 -5 C-2.7614237 -5 -5 -2.7614237 -5 0 C-5 2.7614237 -2.7614237 5 0 5 Z "  fill="#E60000" fill-rule="evenodd" stroke="#000000" fill-opacity="0.6" stroke-opacity="1"  stroke-width="0.6" stroke-linecap="round" stroke-linejoin="bevel" stroke-miterlimit="10" />
</g>
<g transform="matrix(1.3333333 0 0 -1.3333333 240.75028 584.24192)" data-id="MCCRACKEN">
<path d="M0 5 C2.7614237 5 5 2.7614237 5 0 C5 -2.7614237 2.7614237 -5 0 -5 C-2.7614237 -5 -5 -2.7614237 -5 0 C-5 2.7614237 -2.7614237 5 0 5 Z "  fill="#E60000" fill-rule="evenodd" stroke="#000000" fill-opacity="0.6" stroke-opacity="1"  stroke-width="0.6" stroke-linecap="round" stroke-linejoin="bevel" stroke-miterlimit="10" />
</g>
<g transform="matrix(1.3333333 0 0 -1.3333333 1014.543 656.72999)" data-id="MCCREARY">
<path d="M0 5 C2.7614237 5 5 2.7614237 5 0 C5 -2.7614237 2.7614237 -5 0 -5 C-2.7614237 -5 -5 -2.7614237 -5 0 C-5 2.7614237 -2.7614237 5 0 5 Z "  fill="#E60000" fill-rule="evenodd" stroke="#000000" fill-opacity="0.6" stroke-opacity="1"  stroke-width="0.6" stroke-linecap="round" stroke-linejoin="bevel" stroke-miterlimit="10" />
</g>
<g transform="matrix(1.3333333 0 0 -1.3333333 505.93278 474.94861)" data-id="MCLEAN">
<path d="M0 5 C2.7614237 5 5 2.7614237 5 0 C5 -2.7614237 2.7614237 -5 0 -5 C-2.7614237 -5 -5 -2.7614237 -5 0 C-5 2.7614237 -2.7614237 5 0 5 Z "  fill="#E60000" fill-rule="evenodd" stroke="#000000" fill-opacity="0.6" stroke-opacity="1"  stroke-width="0.6" stroke-linecap="round" stroke-linejoin="bevel" stroke-miterlimit="10" />
</g>
<g transform="matrix(1.3333333 0 0 -1.3333333 1052.2611 430.80542)" data-id="MADISON">
<path d="M0 5 C2.7614237 5 5 2.7614237 5 0 C5 -2.7614237 2.7614237 -5 0 -5 C-2.7614237 -5 -5 -2.7614237 -5 0 C-5 2.7614237 -2.7614237 5 0 5 Z "  fill="#E60000" fill-rule="evenodd" stroke="#000000" fill-opacity="0.6" stroke-opacity="1"  stroke-width="0.6" stroke-linecap="round" stroke-linejoin="bevel" stroke-miterlimit="10" />
</g>
<g transform="matrix(1.3333333 0 0 -1.3333333 1272.4605 423.70983)" data-id="MAGOFFIN">
<path d="M0 5 C2.7614237 5 5 2.7614237 5 0 C5 -2.7614237 2.7614237 -5 0 -5 C-2.7614237 -5 -5 -2.7614237 -5 0 C-5 2.7614237 -2.7614237 5 0 5 Z "  fill="#E60000" fill-rule="evenodd" stroke="#000000" fill-opacity="0.6" stroke-opacity="1"  stroke-width="0.6" stroke-linecap="round" stroke-linejoin="bevel" stroke-miterlimit="10" />
</g>
<g transform="matrix(1.3333333 0 0 -1.3333333 870.80334 469.56778)" data-id="MARION">
<path d="M0 5 C2.7614237 5 5 2.7614237 5 0 C5 -2.7614237 2.7614237 -5 0 -5 C-2.7614237 -5 -5 -2.7614237 -5 0 C-5 2.7614237 -2.7614237 5 0 5 Z "  fill="#E60000" fill-rule="evenodd" stroke="#000000" fill-opacity="0.6" stroke-opacity="1"  stroke-width="0.6" stroke-linecap="round" stroke-linejoin="bevel" stroke-miterlimit="10" />
</g>
<g transform="matrix(1.3333333 0 0 -1.3333333 310.91613 623.30166)" data-id="MARSHALL">
<path d="M0 5 C2.7614237 5 5 2.7614237 5 0 C5 -2.7614237 2.7614237 -5 0 -5 C-2.7614237 -5 -5 -2.7614237 -5 0 C-5 2.7614237 -2.7614237 5 0 5 Z "  fill="#E60000" fill-rule="evenodd" stroke="#000000" fill-opacity="0.6" stroke-opacity="1"  stroke-width="0.6" stroke-linecap="round" stroke-linejoin="bevel" stroke-miterlimit="10" />
</g>
<g transform="matrix(1.3333333 0 0 -1.3333333 1375.1763 411.98671)" data-id="MARTIN">
<path d="M0 5 C2.7614237 5 5 2.7614237 5 0 C5 -2.7614237 2.7614237 -5 0 -5 C-2.7614237 -5 -5 -2.7614237 -5 0 C-5 2.7614237 -2.7614237 5 0 5 Z "  fill="#E60000" fill-rule="evenodd" stroke="#000000" fill-opacity="0.6" stroke-opacity="1"  stroke-width="0.6" stroke-linecap="round" stroke-linejoin="bevel" stroke-miterlimit="10" />
</g>
<g transform="matrix(1.3333333 0 0 -1.3333333 1135.2906 227.19925)" data-id="MASON">
<path d="M0 5 C2.7614237 5 5 2.7614237 5 0 C5 -2.7614237 2.7614237 -5 0 -5 C-2.7614237 -5 -5 -2.7614237 -5 0 C-5 2.7614237 -2.7614237 5 0 5 Z "  fill="#E60000" fill-rule="evenodd" stroke="#000000" fill-opacity="0.6" stroke-opacity="1"  stroke-width="0.6" stroke-linecap="round" stroke-linejoin="bevel" stroke-miterlimit="10" />
</g>
<g transform="matrix(1.3333333 0 0 -1.3333333 694.45261 376.8278)" data-id="MEADE">
<path d="M0 5 C2.7614237 5 5 2.7614237 5 0 C5 -2.7614237 2.7614237 -5 0 -5 C-2.7614237 -5 -5 -2.7614237 -5 0 C-5 2.7614237 -2.7614237 5 0 5 Z "  fill="#E60000" fill-rule="evenodd" stroke="#000000" fill-opacity="0.6" stroke-opacity="1"  stroke-width="0.6" stroke-linecap="round" stroke-linejoin="bevel" stroke-miterlimit="10" />
</g>
<g transform="matrix(1.3333333 0 0 -1.3333333 1176.5352 379.58732)" data-id="MENIFEE">
<path d="M0 5 C2.7614237 5 5 2.7614237 5 0 C5 -2.7614237 2.7614237 -5 0 -5 C-2.7614237 -5 -5 -2.7614237 -5 0 C-5 2.7614237 -2.7614237 5 0 5 Z "  fill="#E60000" fill-rule="evenodd" stroke="#000000" fill-opacity="0.6" stroke-opacity="1"  stroke-width="0.6" stroke-linecap="round" stroke-linejoin="bevel" stroke-miterlimit="10" />
</g>
<g transform="matrix(1.3333333 0 0 -1.3333333 943.12443 409.79566)" data-id="MERCER">
<path d="M0 5 C2.7614237 5 5 2.7614237 5 0 C5 -2.7614237 2.7614237 -5 0 -5 C-2.7614237 -5 -5 -2.7614237 -5 0 C-5 2.7614237 -2.7614237 5 0 5 Z "  fill="#E60000" fill-rule="evenodd" stroke="#000000" fill-opacity="0.6" stroke-opacity="1"  stroke-width="0.6" stroke-linecap="round" stroke-linejoin="bevel" stroke-miterlimit="10" />
</g>
<g transform="matrix(1.3333333 0 0 -1.3333333 805.00049 598.78162)" data-id="METCALFE">
<path d="M0 5 C2.7614237 5 5 2.7614237 5 0 C5 -2.7614237 2.7614237 -5 0 -5 C-2.7614237 -5 -5 -2.7614237 -5 0 C-5 2.7614237 -2.7614237 5 0 5 Z "  fill="#E60000" fill-rule="evenodd" stroke="#000000" fill-opacity="0.6" stroke-opacity="1"  stroke-width="0.6" stroke-linecap="round" stroke-linejoin="bevel" stroke-miterlimit="10" />
</g>
<g transform="matrix(1.3333333 0 0 -1.3333333 789.03463 662.45538)" data-id="MONROE">
<path d="M0 5 C2.7614237 5 5 2.7614237 5 0 C5 -2.7614237 2.7614237 -5 0 -5 C-2.7614237 -5 -5 -2.7614237 -5 0 C-5 2.7614237 -2.7614237 5 0 5 Z "  fill="#E60000" fill-rule="evenodd" stroke="#000000" fill-opacity="0.6" stroke-opacity="1"  stroke-width="0.6" stroke-linecap="round" stroke-linejoin="bevel" stroke-miterlimit="10" />
</g>
<g transform="matrix(1.3333333 0 0 -1.3333333 1119.0278 358.18449)" data-id="MONTGOMERY">
<path d="M0 5 C2.7614237 5 5 2.7614237 5 0 C5 -2.7614237 2.7614237 -5 0 -5 C-2.7614237 -5 -5 -2.7614237 -5 0 C-5 2.7614237 -2.7614237 5 0 5 Z "  fill="#E60000" fill-rule="evenodd" stroke="#000000" fill-opacity="0.6" stroke-opacity="1"  stroke-width="0.6" stroke-linecap="round" stroke-linejoin="bevel" stroke-miterlimit="10" />
</g>
<g transform="matrix(1.3333333 0 0 -1.3333333 1238.746 384.00531)" data-id="MORGAN">
<path d="M0 5 C2.7614237 5 5 2.7614237 5 0 C5 -2.7614237 2.7614237 -5 0 -5 C-2.7614237 -5 -5 -2.7614237 -5 0 C-5 2.7614237 -2.7614237 5 0 5 Z "  fill="#E60000" fill-rule="evenodd" stroke="#000000" fill-opacity="0.6" stroke-opacity="1"  stroke-width="0.6" stroke-linecap="round" stroke-linejoin="bevel" stroke-miterlimit="10" />
</g>
<g transform="matrix(1.3333333 0 0 -1.3333333 529.45361 553.31402)" data-id="MUHLENBERG">
<path d="M0 5 C2.7614237 5 5 2.7614237 5 0 C5 -2.7614237 2.7614237 -5 0 -5 C-2.7614237 -5 -5 -2.7614237 -5 0 C-5 2.7614237 -2.7614237 5 0 5 Z "  fill="#E60000" fill-rule="evenodd" stroke="#000000" fill-opacity="0.6" stroke-opacity="1"  stroke-width="0.6" stroke-linecap="round" stroke-linejoin="bevel" stroke-miterlimit="10" />
</g>
<g transform="matrix(1.3333333 0 0 -1.3333333 834.8962 411.13482)" data-id="NELSON">
<path d="M0 5 C2.7614237 5 5 2.7614237 5 0 C5 -2.7614237 2.7614237 -5 0 -5 C-2.7614237 -5 -5 -2.7614237 -5 0 C-5 2.7614237 -2.7614237 5 0 5 Z "  fill="#E60000" fill-rule="evenodd" stroke="#000000" fill-opacity="0.6" stroke-opacity="1"  stroke-width="0.6" stroke-linecap="round" stroke-linejoin="bevel" stroke-miterlimit="10" />
</g>
<g transform="matrix(1.3333333 0 0 -1.3333333 1100.3243 287.86801)" data-id="NICHOLAS">
<path d="M0 5 C2.7614237 5 5 2.7614237 5 0 C5 -2.7614237 2.7614237 -5 0 -5 C-2.7614237 -5 -5 -2.7614237 -5 0 C-5 2.7614237 -2.7614237 5 0 5 Z "  fill="#E60000" fill-rule="evenodd" stroke="#000000" fill-opacity="0.6" stroke-opacity="1"  stroke-width="0.6" stroke-linecap="round" stroke-linejoin="bevel" stroke-miterlimit="10" />
</g>
<g transform="matrix(1.3333333 0 0 -1.3333333 581.83794 486.67855)" data-id="OHIO">
<path d="M0 5 C2.7614237 5 5 2.7614237 5 0 C5 -2.7614237 2.7614237 -5 0 -5 C-2.7614237 -5 -5 -2.7614237 -5 0 C-5 2.7614237 -2.7614237 5 0 5 Z "  fill="#E60000" fill-rule="evenodd" stroke="#000000" fill-opacity="0.6" stroke-opacity="1"  stroke-width="0.6" stroke-linecap="round" stroke-linejoin="bevel" stroke-miterlimit="10" />
</g>
<g transform="matrix(1.3333333 0 0 -1.3333333 838.10503 272.98314)" data-id="OLDHAM">
<path d="M0 5 C2.7614237 5 5 2.7614237 5 0 C5 -2.7614237 2.7614237 -5 0 -5 C-2.7614237 -5 -5 -2.7614237 -5 0 C-5 2.7614237 -2.7614237 5 0 5 Z "  fill="#E60000" fill-rule="evenodd" stroke="#000000" fill-opacity="0.6" stroke-opacity="1"  stroke-width="0.6" stroke-linecap="round" stroke-linejoin="bevel" stroke-miterlimit="10" />
</g>
<g transform="matrix(1.3333333 0 0 -1.3333333 951.59329 244.86116)" data-id="OWEN">
<path d="M0 5 C2.7614237 5 5 2.7614237 5 0 C5 -2.7614237 2.7614237 -5 0 -5 C-2.7614237 -5 -5 -2.7614237 -5 0 C-5 2.7614237 -2.7614237 5 0 5 Z "  fill="#E60000" fill-rule="evenodd" stroke="#000000" fill-opacity="0.6" stroke-opacity="1"  stroke-width="0.6" stroke-linecap="round" stroke-linejoin="bevel" stroke-miterlimit="10" />
</g>
<g transform="matrix(1.3333333 0 0 -1.3333333 1161.115 500.31756)" data-id="OWSLEY">
<path d="M0 5 C2.7614237 5 5 2.7614237 5 0 C5 -2.7614237 2.7614237 -5 0 -5 C-2.7614237 -5 -5 -2.7614237 -5 0 C-5 2.7614237 -2.7614237 5 0 5 Z "  fill="#E60000" fill-rule="evenodd" stroke="#000000" fill-opacity="0.6" stroke-opacity="1"  stroke-width="0.6" stroke-linecap="round" stroke-linejoin="bevel" stroke-miterlimit="10" />
</g>
<g transform="matrix(1.3333333 0 0 -1.3333333 1037.2099 203.65829)" data-id="PENDLETON">
<path d="M0 5 C2.7614237 5 5 2.7614237 5 0 C5 -2.7614237 2.7614237 -5 0 -5 C-2.7614237 -5 -5 -2.7614237 -5 0 C-5 2.7614237 -2.7614237 5 0 5 Z "  fill="#E60000" fill-rule="evenodd" stroke="#000000" fill-opacity="0.6" stroke-opacity="1"  stroke-width="0.6" stroke-linecap="round" stroke-linejoin="bevel" stroke-miterlimit="10" />
</g>
<g transform="matrix(1.3333333 0 0 -1.3333333 1245.5737 540.53486)" data-id="PERRY">
<path d="M0 5 C2.7614237 5 5 2.7614237 5 0 C5 -2.7614237 2.7614237 -5 0 -5 C-2.7614237 -5 -5 -2.7614237 -5 0 C-5 2.7614237 -2.7614237 5 0 5 Z "  fill="#E60000" fill-rule="evenodd" stroke="#000000" fill-opacity="0.6" stroke-opacity="1"  stroke-width="0.6" stroke-linecap="round" stroke-linejoin="bevel" stroke-miterlimit="10" />
</g>
<g transform="matrix(1.3333333 0 0 -1.3333333 1396.6797 488.77696)" data-id="PIKE">
<path d="M0 5 C2.7614237 5 5 2.7614237 5 0 C5 -2.7614237 2.7614237 -5 0 -5 C-2.7614237 -5 -5 -2.7614237 -5 0 C-5 2.7614237 -2.7614237 5 0 5 Z "  fill="#E60000" fill-rule="evenodd" stroke="#000000" fill-opacity="0.6" stroke-opacity="1"  stroke-width="0.6" stroke-linecap="round" stroke-linejoin="bevel" stroke-miterlimit="10" />
</g>
<g transform="matrix(1.3333333 0 0 -1.3333333 1135.3756 405.14922)" data-id="POWELL">
<path d="M0 5 C2.7614237 5 5 2.7614237 5 0 C5 -2.7614237 2.7614237 -5 0 -5 C-2.7614237 -5 -5 -2.7614237 -5 0 C-5 2.7614237 -2.7614237 5 0 5 Z "  fill="#E60000" fill-rule="evenodd" stroke="#000000" fill-opacity="0.6" stroke-opacity="1"  stroke-width="0.6" stroke-linecap="round" stroke-linejoin="bevel" stroke-miterlimit="10" />
</g>
<g transform="matrix(1.3333333 0 0 -1.3333333 997.52009 572.7728)" data-id="PULASKI">
<path d="M0 5 C2.7614237 5 5 2.7614237 5 0 C5 -2.7614237 2.7614237 -5 0 -5 C-2.7614237 -5 -5 -2.7614237 -5 0 C-5 2.7614237 -2.7614237 5 0 5 Z "  fill="#E60000" fill-rule="evenodd" stroke="#000000" fill-opacity="0.6" stroke-opacity="1"  stroke-width="0.6" stroke-linecap="round" stroke-linejoin="bevel" stroke-miterlimit="10" />
</g>
<g transform="matrix(1.3333333 0 0 -1.3333333 1093.6123 245.08123)" data-id="ROBERTSON">
<path d="M0 5 C2.7614237 5 5 2.7614237 5 0 C5 -2.7614237 2.7614237 -5 0 -5 C-2.7614237 -5 -5 -2.7614237 -5 0 C-5 2.7614237 -2.7614237 5 0 5 Z "  fill="#E60000" fill-rule="evenodd" stroke="#000000" fill-opacity="0.6" stroke-opacity="1"  stroke-width="0.6" stroke-linecap="round" stroke-linejoin="bevel" stroke-miterlimit="10" />
</g>
<g transform="matrix(1.3333333 0 0 -1.3333333 1045.3214 512.74465)" data-id="ROCKCASTLE">
<path d="M0 5 C2.7614237 5 5 2.7614237 5 0 C5 -2.7614237 2.7614237 -5 0 -5 C-2.7614237 -5 -5 -2.7614237 -5 0 C-5 2.7614237 -2.7614237 5 0 5 Z "  fill="#E60000" fill-rule="evenodd" stroke="#000000" fill-opacity="0.6" stroke-opacity="1"  stroke-width="0.6" stroke-linecap="round" stroke-linejoin="bevel" stroke-miterlimit="10" />
</g>
<g transform="matrix(1.3333333 0 0 -1.3333333 1209.0669 320.32888)" data-id="ROWAN">
<path d="M0 5 C2.7614237 5 5 2.7614237 5 0 C5 -2.7614237 2.7614237 -5 0 -5 C-2.7614237 -5 -5 -2.7614237 -5 0 C-5 2.7614237 -2.7614237 5 0 5 Z "  fill="#E60000" fill-rule="evenodd" stroke="#000000" fill-opacity="0.6" stroke-opacity="1"  stroke-width="0.6" stroke-linecap="round" stroke-linejoin="bevel" stroke-miterlimit="10" />
</g>
<g transform="matrix(1.3333333 0 0 -1.3333333 909.41589 598.67583)" data-id="RUSSELL">
<path d="M0 5 C2.7614237 5 5 2.7614237 5 0 C5 -2.7614237 2.7614237 -5 0 -5 C-2.7614237 -5 -5 -2.7614237 -5 0 C-5 2.7614237 -2.7614237 5 0 5 Z "  fill="#E60000" fill-rule="evenodd" stroke="#000000" fill-opacity="0.6" stroke-opacity="1"  stroke-width="0.6" stroke-linecap="round" stroke-linejoin="bevel" stroke-miterlimit="10" />
</g>
<g transform="matrix(1.3333333 0 0 -1.3333333 996.28374 298.12551)" data-id="SCOTT">
<path d="M0 5 C2.7614237 5 5 2.7614237 5 0 C5 -2.7614237 2.7614237 -5 0 -5 C-2.7614237 -5 -5 -2.7614237 -5 0 C-5 2.7614237 -2.7614237 5 0 5 Z "  fill="#E60000" fill-rule="evenodd" stroke="#000000" fill-opacity="0.6" stroke-opacity="1"  stroke-width="0.6" stroke-linecap="round" stroke-linejoin="bevel" stroke-miterlimit="10" />
</g>
<g transform="matrix(1.3333333 0 0 -1.3333333 884.50659 315.8668)" data-id="SHELBY">
<path d="M0 5 C2.7614237 5 5 2.7614237 5 0 C5 -2.7614237 2.7614237 -5 0 -5 C-2.7614237 -5 -5 -2.7614237 -5 0 C-5 2.7614237 -2.7614237 5 0 5 Z "  fill="#E60000" fill-rule="evenodd" stroke="#000000" fill-opacity="0.6" stroke-opacity="1"  stroke-width="0.6" stroke-linecap="round" stroke-linejoin="bevel" stroke-miterlimit="10" />
</g>
<g transform="matrix(1.3333333 0 0 -1.3333333 630.60671 655.66122)" data-id="SIMPSON">
<path d="M0 5 C2.7614237 5 5 2.7614237 5 0 C5 -2.7614237 2.7614237 -5 0 -5 C-2.7614237 -5 -5 -2.7614237 -5 0 C-5 2.7614237 -2.7614237 5 0 5 Z "  fill="#E60000" fill-rule="evenodd" stroke="#000000" fill-opacity="0.6" stroke-opacity="1"  stroke-width="0.6" stroke-linecap="round" stroke-linejoin="bevel" stroke-miterlimit="10" />
</g>
<g transform="matrix(1.3333333 0 0 -1.3333333 860.15495 358.43402)" data-id="SPENCER">
<path d="M0 5 C2.7614237 5 5 2.7614237 5 0 C5 -2.7614237 2.7614237 -5 0 -5 C-2.7614237 -5 -5 -2.7614237 -5 0 C-5 2.7614237 -2.7614237 5 0 5 Z "  fill="#E60000" fill-rule="evenodd" stroke="#000000" fill-opacity="0.6" stroke-opacity="1"  stroke-width="0.6" stroke-linecap="round" stroke-linejoin="bevel" stroke-miterlimit="10" />
</g>
<g transform="matrix(1.3333333 0 0 -1.3333333 859.69598 519.32699)" data-id="TAYLOR">
<path d="M0 5 C2.7614237 5 5 2.7614237 5 0 C5 -2.7614237 2.7614237 -5 0 -5 C-2.7614237 -5 -5 -2.7614237 -5 0 C-5 2.7614237 -2.7614237 5 0 5 Z "  fill="#E60000" fill-rule="evenodd" stroke="#000000" fill-opacity="0.6" stroke-opacity="1"  stroke-width="0.6" stroke-linecap="round" stroke-linejoin="bevel" stroke-miterlimit="10" />
</g>
<g transform="matrix(1.3333333 0 0 -1.3333333 521.39873 634.22477)" data-id="TODD">
<path d="M0 5 C2.7614237 5 5 2.7614237 5 0 C5 -2.7614237 2.7614237 -5 0 -5 C-2.7614237 -5 -5 -2.7614237 -5 0 C-5 2.7614237 -2.7614237 5 0 5 Z "  fill="#E60000" fill-rule="evenodd" stroke="#000000" fill-opacity="0.6" stroke-opacity="1"  stroke-width="0.6" stroke-linecap="round" stroke-linejoin="bevel" stroke-miterlimit="10" />
</g>
<g transform="matrix(1.3333333 0 0 -1.3333333 394.36585 640.93569)" data-id="TRIGG">
<path d="M0 5 C2.7614237 5 5 2.7614237 5 0 C5 -2.7614237 2.7614237 -5 0 -5 C-2.7614237 -5 -5 -2.7614237 -5 0 C-5 2.7614237 -2.7614237 5 0 5 Z "  fill="#E60000" fill-rule="evenodd" stroke="#000000" fill-opacity="0.6" stroke-opacity="1"  stroke-width="0.6" stroke-linecap="round" stroke-linejoin="bevel" stroke-miterlimit="10" />
</g>
<g transform="matrix(1.3333333 0 0 -1.3333333 858.40026 223.01467)" data-id="TRIMBLE">
<path d="M0 5 C2.7614237 5 5 2.7614237 5 0 C5 -2.7614237 2.7614237 -5 0 -5 C-2.7614237 -5 -5 -2.7614237 -5 0 C-5 2.7614237 -2.7614237 5 0 5 Z "  fill="#E60000" fill-rule="evenodd" stroke="#000000" fill-opacity="0.6" stroke-opacity="1"  stroke-width="0.6" stroke-linecap="round" stroke-linejoin="bevel" stroke-miterlimit="10" />
</g>
<g transform="matrix(1.3333333 0 0 -1.3333333 381.19315 445.10685)" data-id="UNION">
<path d="M0 5 C2.7614237 5 5 2.7614237 5 0 C5 -2.7614237 2.7614237 -5 0 -5 C-2.7614237 -5 -5 -2.7614237 -5 0 C-5 2.7614237 -2.7614237 5 0 5 Z "  fill="#E60000" fill-rule="evenodd" stroke="#000000" fill-opacity="0.6" stroke-opacity="1"  stroke-width="0.6" stroke-linecap="round" stroke-linejoin="bevel" stroke-miterlimit="10" />
</g>
<g transform="matrix(1.3333333 0 0 -1.3333333 659.61127 598.08206)" data-id="WARREN">
<path d="M0 5 C2.7614237 5 5 2.7614237 5 0 C5 -2.7614237 2.7614237 -5 0 -5 C-2.7614237 -5 -5 -2.7614237 -5 0 C-5 2.7614237 -2.7614237 5 0 5 Z "  fill="#E60000" fill-rule="evenodd" stroke="#000000" fill-opacity="0.6" stroke-opacity="1"  stroke-width="0.6" stroke-linecap="round" stroke-linejoin="bevel" stroke-miterlimit="10" />
</g>
<g transform="matrix(1.3333333 0 0 -1.3333333 888.17592 423.1437)" data-id="WASHINGTON">
<path d="M0 5 C2.7614237 5 5 2.7614237 5 0 C5 -2.7614237 2.7614237 -5 0 -5 C-2.7614237 -5 -5 -2.7614237 -5 0 C-5 2.7614237 -2.7614237 5 0 5 Z "  fill="#E60000" fill-rule="evenodd" stroke="#000000" fill-opacity="0.6" stroke-opacity="1"  stroke-width="0.6" stroke-linecap="round" stroke-linejoin="bevel" stroke-miterlimit="10" />
</g>
<g transform="matrix(1.3333333 0 0 -1.3333333 951.51157 642.08185)" data-id="WAYNE">
<path d="M0 5 C2.7614237 5 5 2.7614237 5 0 C5 -2.7614237 2.7614237 -5 0 -5 C-2.7614237 -5 -5 -2.7614237 -5 0 C-5 2.7614237 -2.7614237 5 0 5 Z "  fill="#E60000" fill-rule="evenodd" stroke="#000000" fill-opacity="0.6" stroke-opacity="1"  stroke-width="0.6" stroke-linecap="round" stroke-linejoin="bevel" stroke-miterlimit="10" />
</g>
<g transform="matrix(1.3333333 0 0 -1.3333333 429.18093 477.43847)" data-id="WEBSTER">
<path d="M0 5 C2.7614237 5 5 2.7614237 5 0 C5 -2.7614237 2.7614237 -5 0 -5 C-2.7614237 -5 -5 -2.7614237 -5 0 C-5 2.7614237 -2.7614237 5 0 5 Z "  fill="#E60000" fill-rule="evenodd" stroke="#000000" fill-opacity="0.6" stroke-opacity="1"  stroke-width="0.6" stroke-linecap="round" stroke-linejoin="bevel" stroke-miterlimit="10" />
</g>
<g transform="matrix(1.3333333 0 0 -1.3333333 1076.5591 651.94835)" data-id="WHITLEY">
<path d="M0 5 C2.7614237 5 5 2.7614237 5 0 C5 -2.7614237 2.7614237 -5 0 -5 C-2.7614237 -5 -5 -2.7614237 -5 0 C-5 2.7614237 -2.7614237 5 0 5 Z "  fill="#E60000" fill-rule="evenodd" stroke="#000000" fill-opacity="0.6" stroke-opacity="1"  stroke-width="0.6" stroke-linecap="round" stroke-linejoin="bevel" stroke-miterlimit="10" />
</g>
<g transform="matrix(1.3333333 0 0 -1.3333333 1195.8735 426.40906)" data-id="WOLFE">
<path d="M0 5 C2.7614237 5 5 2.7614237 5 0 C5 -2.7614237 2.7614237 -5 0 -5 C-2.7614237 -5 -5 -2.7614237 -5 0 C-5 2.7614237 -2.7614237 5 0 5 Z "  fill="#E60000" fill-rule="evenodd" stroke="#000000" fill-opacity="0.6" stroke-opacity="1"  stroke-width="0.6" stroke-linecap="round" stroke-linejoin="bevel" stroke-miterlimit="10" />
</g>
<g transform="matrix(1.3333333 0 0 -1.3333333 967.06691 356.1151)" data-id="WOODFORD">
<path d="M0 5 C2.7614237 5 5 2.7614237 5 0 C5 -2.7614237 2.7614237 -5 0 -5 C-2.7614237 -5 -5 -2.7614237 -5 0 C-5 2.7614237 -2.7614237 5 0 5 Z "  fill="#E60000" fill-rule="evenodd" stroke="#000000" fill-opacity="0.6" stroke-opacity="1"  stroke-width="0.6" stroke-linecap="round" stroke-linejoin="bevel" stroke-miterlimit="10" />
</g>
</g>
</g>
</svg>